<?xml version="1.0" encoding="UTF-8"?>
<svg id="_レイヤー_2" data-name="レイヤー 2" xmlns="http://www.w3.org/2000/svg" viewBox="0 0 169.38 41.01">
  <defs>
    <style>
      .cls-1 {
        fill: none;
        stroke: #050000;
        stroke-miterlimit: 10;
      }
    </style>
  </defs>
  <g id="_レイヤー_2-2" data-name=" レイヤー 2">
    <g id="Layer_1" data-name="Layer 1">
      <g>
        <g>
          <path class="cls-1" d="M52.27,2.85h7.62c4.23,0,5.83,2.18,5.83,4.46,0,1.98-1.04,3.24-2.23,3.77,1.19.46,2.74,1.7,2.74,4,0,2.99-2.36,5.22-6.05,5.22h-7.9V2.85h-.01ZM59.46,9.73c1.8,0,2.53-.81,2.53-2.05s-.96-1.93-2.41-1.93h-3.62v3.98h3.5ZM55.96,17.38h3.42c2.05,0,2.96-.86,2.96-2.43,0-1.42-.91-2.3-2.99-2.3h-3.39v4.74h0Z"/>
          <path class="cls-1" d="M69.11,5.97v-3.12h12.38v3.09h-8.71M72.78,17.21h9.22l-.46,3.09h-12.44v-3.09M69.4,9.66h8.36v3.12h-8.36"/>
          <path class="cls-1" d="M87.78,16.27l-1.34,4.03h-3.72l5.93-17.45h4.74l6.2,17.45h-3.98l-1.44-4.03s-6.39,0-6.39,0ZM93.35,13.18c-1.24-3.7-2.03-6.05-2.46-7.62h-.03c-.43,1.72-1.29,4.46-2.28,7.62h4.77Z"/>
          <path class="cls-1" d="M105.18,5.94h-5.32v-3.09h14.39v3.09h-5.29v14.36h-3.77V5.94h-.01Z"/>
          <path class="cls-1" d="M67.94,34.85c-.68,3.27-3.14,5.65-7.52,5.65-5.55,0-8.15-3.93-8.15-8.89s2.71-9.07,8.33-9.07c4.66,0,6.91,2.71,7.34,5.65h-3.77c-.38-1.37-1.32-2.71-3.7-2.71-3.11,0-4.31,2.81-4.31,6,0,2.94,1.04,6.05,4.41,6.05,2.48,0,3.24-1.65,3.57-2.68h3.8Z"/>
          <path class="cls-1" d="M74.45,22.8v10.38c0,3.37,1.72,4.36,3.62,4.36,2.15,0,3.5-1.16,3.5-4.36v-10.38h3.8v10.21c0,5.98-3.49,7.5-7.34,7.5s-7.35-1.6-7.35-7.42v-10.28h3.77Z"/>
          <path class="cls-1" d="M92.71,33.26v6.99h-3.7v-17.45h7.67c3.8,0,5.85,2.08,5.85,4.79,0,2.33-1.27,3.6-2.53,4.13.86.33,2.18,1.22,2.18,4.36v.86c0,1.16,0,2.51.25,3.32h-3.6c-.3-.76-.35-2.08-.35-3.93v-.25c0-1.9-.48-2.81-3.29-2.81h-2.48ZM92.71,30.24h3.17c2.05,0,2.86-.78,2.86-2.23s-.94-2.23-2.79-2.23h-3.24s0,4.46,0,4.46Z"/>
          <path class="cls-1" d="M109.23,33.26v6.99h-3.7v-17.45h7.67c3.8,0,5.85,2.08,5.85,4.79,0,2.33-1.27,3.6-2.53,4.13.86.33,2.18,1.22,2.18,4.36v.86c0,1.16,0,2.51.25,3.32h-3.6c-.3-.76-.35-2.08-.35-3.93v-.25c0-1.9-.48-2.81-3.29-2.81h-2.48ZM109.23,30.24h3.17c2.05,0,2.86-.78,2.86-2.23s-.94-2.23-2.79-2.23h-3.24s0,4.46,0,4.46Z"/>
          <path class="cls-1" d="M122.04,25.92v-3.12h12.38v3.09h-8.71M125.72,37.16h9.22l-.46,3.09h-12.44v-3.09M122.34,29.61h8.36v3.12h-8.36"/>
          <path class="cls-1" d="M137.44,40.25v-17.45h4.69c2.18,3.9,6.2,10.99,7.02,12.89h.05c-.2-1.82-.2-4.86-.2-7.73v-5.17h3.42v17.45h-4.43c-1.87-3.42-6.33-11.52-7.22-13.55h-.05c.13,1.52.18,5.12.18,8.23v5.32h-3.46Z"/>
          <path class="cls-1" d="M159.81,25.89h-5.32v-3.09h14.39v3.09h-5.29v14.36h-3.77v-14.36h0Z"/>
        </g>
        <g>
          <g>
            <rect class="cls-1" x=".5" y="32.91" width="13.32" height="7.59"/>
            <rect class="cls-1" x=".5" y="23.83" width="13.32" height="7.59"/>
            <rect class="cls-1" x=".5" y="17.82" width="13.32" height="4.56"/>
            <rect class="cls-1" x=".5" y="11.95" width="13.32" height="4.56"/>
            <rect class="cls-1" x=".5" y="7.91" width="13.32" height="2.43"/>
            <rect class="cls-1" x=".5" y="4.21" width="13.32" height="2.43"/>
            <rect class="cls-1" x=".5" y=".5" width="13.32" height="1.52"/>
          </g>
          <g>
            <rect class="cls-1" x="16.84" y="32.91" width="13.32" height="7.59"/>
            <rect class="cls-1" x="16.84" y="23.83" width="13.32" height="7.59"/>
            <rect class="cls-1" x="16.84" y="17.82" width="13.32" height="4.56"/>
            <rect class="cls-1" x="16.84" y="13.98" width="13.32" height="2.43"/>
          </g>
          <g>
            <rect class="cls-1" x="33.18" y="32.91" width="13.32" height="7.59"/>
            <rect class="cls-1" x="33.18" y="23.83" width="13.32" height="7.59"/>
            <rect class="cls-1" x="33.18" y="17.82" width="13.32" height="4.56"/>
            <rect class="cls-1" x="33.18" y="11.95" width="13.32" height="4.56"/>
            <rect class="cls-1" x="33.18" y="7.91" width="13.32" height="2.43"/>
            <rect class="cls-1" x="33.18" y="5.06" width="13.32" height="1.52"/>
          </g>
        </g>
      </g>
    </g>
  </g>
</svg>