<svg width="113" height="98" viewBox="0 0 113 98" fill="none" xmlns="http://www.w3.org/2000/svg">
<g clip-path="url(#clip0_226_3517)">
<path d="M32.7209 79.4045H0V98H32.7209V79.4045Z" fill="white"/>
<path d="M32.7209 57.1584H0V75.7539H32.7209V57.1584Z" fill="white"/>
<path d="M32.7209 42.434H0V53.606H32.7209V42.434Z" fill="white"/>
<path d="M32.7209 28.0525H0V39.2245H32.7209V28.0525Z" fill="white"/>
<path d="M32.7209 18.1545H0V24.108H32.7209V18.1545Z" fill="white"/>
<path d="M32.7209 9.0896H0V15.0431H32.7209V9.0896Z" fill="white"/>
<path d="M32.7209 0H0V3.724H32.7209V0Z" fill="white"/>
<path d="M72.8605 79.4045H40.1396V98H72.8605V79.4045Z" fill="white"/>
<path d="M72.8605 57.1584H40.1396V75.7539H72.8605V57.1584Z" fill="white"/>
<path d="M72.8605 42.434H40.1396V53.606H72.8605V42.434Z" fill="white"/>
<path d="M72.8605 33.026H40.1396V38.9795H72.8605V33.026Z" fill="white"/>
<path d="M113 79.4047H80.2793V98.0002H113V79.4047Z" fill="white"/>
<path d="M113 57.1586H80.2793V75.7541H113V57.1586Z" fill="white"/>
<path d="M113 42.4341H80.2793V53.6061H113V42.4341Z" fill="white"/>
<path d="M113 28.0526H80.2793V39.2246H113V28.0526Z" fill="white"/>
<path d="M113 18.1547H80.2793V24.1082H113V18.1547Z" fill="white"/>
<path d="M113 11.1721H80.2793V14.8961H113V11.1721Z" fill="white"/>
</g>
<defs>
<clipPath id="clip0_226_3517">
<rect width="113" height="98" fill="white"/>
</clipPath>
</defs>
</svg>
