<svg width="506" height="120" viewBox="0 0 506 120" fill="none" xmlns="http://www.w3.org/2000/svg">
<g clip-path="url(#clip0_121_262)">
<path d="M155.584 7.05005H178.484C191.196 7.05005 196.005 13.59 196.005 20.43C196.005 26.37 192.879 30.15 189.303 31.74C192.879 33.12 197.538 36.84 197.538 43.74C197.538 52.71 190.445 59.4 179.356 59.4H155.614V7.05005H155.584ZM177.192 27.69C182.601 27.69 184.795 25.26 184.795 21.54C184.795 17.82 181.91 15.75 177.552 15.75H166.673V27.69H177.162H177.192ZM166.673 50.64H176.951C183.112 50.64 185.847 48.0601 185.847 43.3501C185.847 39.09 183.112 36.45 176.861 36.45H166.673V50.67V50.64Z" fill="white"/>
<path d="M206.193 16.41V7.05005H243.398V16.32H217.222M217.222 50.13H244.931L243.548 59.4H206.163V50.13M207.064 27.48H232.188V36.84H207.064" fill="white"/>
<path d="M262.301 47.3101L258.274 59.4H247.095L264.916 7.05005H279.161L297.794 59.4H285.833L281.505 47.3101H262.332H262.301ZM279.041 38.04C275.314 26.94 272.94 19.89 271.648 15.18H271.558C270.265 20.34 267.681 28.56 264.706 38.04H279.011H279.041Z" fill="white"/>
<path d="M314.593 16.32H298.605V7.05005H341.851V16.32H325.953V59.4H314.623V16.32H314.593Z" fill="white"/>
<path d="M202.677 103.05C200.633 112.86 193.24 120 180.077 120C163.397 120 155.584 108.21 155.584 93.3301C155.584 78.4501 163.728 66.1201 180.618 66.1201C194.622 66.1201 201.384 74.2501 202.677 83.0701H191.347C190.205 78.9601 187.38 74.9401 180.227 74.9401C170.881 74.9401 167.274 83.3701 167.274 92.9401C167.274 101.76 170.4 111.09 180.528 111.09C187.981 111.09 190.265 106.14 191.256 103.05H202.677Z" fill="white"/>
<path d="M222.241 66.9001V98.0401C222.241 108.15 227.41 111.12 233.12 111.12C239.582 111.12 243.639 107.64 243.639 98.0401V66.9001H255.059V97.5301C255.059 115.47 244.57 120.03 233 120.03C221.43 120.03 210.911 115.23 210.911 97.7701V66.9301H222.241V66.9001Z" fill="white"/>
<path d="M277.118 98.2801V119.25H265.998V66.9001H289.049C300.469 66.9001 306.63 73.1401 306.63 81.2701C306.63 88.2601 302.813 92.0701 299.026 93.6601C301.611 94.6501 305.578 97.3202 305.578 106.74V109.32C305.578 112.8 305.578 116.85 306.329 119.28H295.51C294.608 117 294.458 113.04 294.458 107.49V106.74C294.458 101.04 293.016 98.3102 284.571 98.3102H277.118V98.2801ZM277.118 89.2201H286.644C292.805 89.2201 295.239 86.8801 295.239 82.5301C295.239 78.1801 292.414 75.8402 286.855 75.8402H277.118V89.2201Z" fill="white"/>
<path d="M326.765 98.2801V119.25H315.645V66.9001H338.696C350.116 66.9001 356.277 73.1401 356.277 81.2701C356.277 88.2601 352.46 92.0701 348.673 93.6601C351.258 94.6501 355.225 97.3202 355.225 106.74V109.32C355.225 112.8 355.225 116.85 355.976 119.28H345.157C344.256 117 344.105 113.04 344.105 107.49V106.74C344.105 101.04 342.663 98.3102 334.218 98.3102H326.765V98.2801ZM326.765 89.2201H336.292C342.452 89.2201 344.887 86.8801 344.887 82.5301C344.887 78.1801 342.062 75.8402 336.502 75.8402H326.765V89.2201Z" fill="white"/>
<path d="M365.263 76.2601V66.9001H402.468V76.1701H376.292M376.322 109.98H404.031L402.648 119.25H365.263V109.98M366.164 87.3302H391.288V96.6901H366.164" fill="white"/>
<path d="M411.544 119.25V66.9001H425.639C432.19 78.6001 444.271 99.8701 446.736 105.57H446.886C446.285 100.11 446.285 90.9901 446.285 82.3801V66.8701H456.563V119.22H443.25C437.63 108.96 424.226 84.6601 421.552 78.5701H421.401C421.792 83.1301 421.942 93.9301 421.942 103.26V119.22H411.604L411.544 119.25Z" fill="white"/>
<path d="M478.772 76.1701H462.784V66.9001H506.03V76.1701H490.132V119.25H478.802V76.1701H478.772Z" fill="white"/>
<path d="M40.0304 97.23H0V120H40.0304V97.23Z" fill="white"/>
<path d="M40.0304 69.99H0V92.76H40.0304V69.99Z" fill="white"/>
<path d="M40.0304 51.96H0V65.64H40.0304V51.96Z" fill="white"/>
<path d="M40.0304 34.3501H0V48.0301H40.0304V34.3501Z" fill="white"/>
<path d="M40.0304 22.23H0V29.52H40.0304V22.23Z" fill="white"/>
<path d="M40.0304 11.1299H0V18.4199H40.0304V11.1299Z" fill="white"/>
<path d="M40.0304 0H0V4.56H40.0304V0Z" fill="white"/>
<path d="M89.1369 97.23H49.1064V120H89.1369V97.23Z" fill="white"/>
<path d="M89.1369 69.99H49.1064V92.76H89.1369V69.99Z" fill="white"/>
<path d="M89.1369 51.96H49.1064V65.64H89.1369V51.96Z" fill="white"/>
<path d="M89.1369 40.4399H49.1064V47.7299H89.1369V40.4399Z" fill="white"/>
<path d="M138.243 97.23H98.2126V120H138.243V97.23Z" fill="white"/>
<path d="M138.243 69.99H98.2126V92.76H138.243V69.99Z" fill="white"/>
<path d="M138.243 51.96H98.2126V65.64H138.243V51.96Z" fill="white"/>
<path d="M138.243 34.3499H98.2126V48.0299H138.243V34.3499Z" fill="white"/>
<path d="M138.243 22.23H98.2126V29.52H138.243V22.23Z" fill="white"/>
<path d="M138.243 13.6799H98.2126V18.2399H138.243V13.6799Z" fill="white"/>
</g>
<defs>
<clipPath id="clip0_121_262">
<rect width="506" height="120" fill="white"/>
</clipPath>
</defs>
</svg>
